<?xml version="1.0" encoding="UTF-8"?>
<svg width="150px" height="18px" viewBox="0 0 150 18" version="1.1" xmlns="http://www.w3.org/2000/svg" xmlns:xlink="http://www.w3.org/1999/xlink">
    <!-- Generator: Sketch 58 (84663) - https://sketch.com -->
    <title>MUVIZ</title>
    <desc>Created with Sketch.</desc>
    <g id="Page-1" stroke="none" stroke-width="1" fill="none" fill-rule="evenodd">
        <g id="Desktop-HD" transform="translate(-142.000000, -30.000000)" fill="#F1BE00" fill-rule="nonzero">
            <path d="M142.968,47 C142.791999,47 142.640001,46.9360006 142.512,46.808 C142.383999,46.6799994 142.32,46.5280009 142.32,46.352 L142.32,30.848 C142.32,30.6719991 142.383999,30.5200006 142.512,30.392 C142.640001,30.2639994 142.791999,30.2 142.968,30.2 L146.76,30.2 C147.158224,30.2 147.474271,30.370665 147.708148,30.7119994 L151.272,36.608 L154.752,30.848 C154.992001,30.4159978 155.335998,30.2 155.784,30.2 L159.576,30.2 C159.752001,30.2 159.903999,30.2639994 160.032,30.392 C160.160001,30.5200006 160.224,30.6719991 160.224,30.848 L160.224,46.352 C160.224,46.5280009 160.160001,46.6799994 160.032,46.808 C159.903999,46.9360006 159.752001,47 159.576,47 L155.232,47 C155.055999,47 154.904001,46.9360006 154.776,46.808 C154.647999,46.6799994 154.584,46.5280009 154.584,46.352 L154.584,39.776 L153,42.368 C152.887999,42.5440009 152.764001,42.6879994 152.628,42.8 C152.491999,42.9120006 152.32,42.968 152.112,42.968 L150.432,42.968 C150.223999,42.968 150.052001,42.9120006 149.916,42.8 C149.779999,42.6879994 149.656001,42.5440009 149.544,42.368 L147.96,39.776 L147.96,46.352 C147.96,46.5280009 147.896001,46.6799994 147.768,46.808 C147.639999,46.9360006 147.488001,47 147.312,47 L142.968,47 Z M183.053333,47.24 C180.653321,47.24 178.753333,46.6920055 177.353333,45.596 C175.953326,44.4999945 175.253333,42.856011 175.253333,40.664 L175.253333,30.848 C175.253333,30.6719991 175.317333,30.5200006 175.445333,30.392 C175.573334,30.2639994 175.725332,30.2 175.901333,30.2 L180.605333,30.2 C180.781334,30.2 180.933333,30.2639994 181.061333,30.392 C181.189334,30.5200006 181.253333,30.6719991 181.253333,30.848 L181.253333,40.568 C181.253333,41.176003 181.401332,41.6359984 181.697333,41.948 C181.993335,42.2600016 182.43733,42.416 183.029333,42.416 C183.621336,42.416 184.065332,42.2600016 184.361333,41.948 C184.657335,41.6359984 184.805333,41.176003 184.805333,40.568 L184.805333,30.848 C184.805333,30.6719991 184.869333,30.5200006 184.997333,30.392 C185.125334,30.2639994 185.277332,30.2 185.453333,30.2 L190.157333,30.2 C190.333334,30.2 190.485333,30.2639994 190.613333,30.392 C190.741334,30.5200006 190.805333,30.6719991 190.805333,30.848 L190.805333,40.664 C190.805333,42.856011 190.10934,44.4999945 188.717333,45.596 C187.325326,46.6920055 185.437345,47.24 183.053333,47.24 Z M210.490667,47 C210.186665,47 209.946668,46.9200008 209.770667,46.76 C209.594666,46.5999992 209.474667,46.416001 209.410667,46.208 L204.898667,30.896 L204.874667,30.728 C204.874667,30.5839993 204.926666,30.4600005 205.030667,30.356 C205.134667,30.2519995 205.258666,30.2 205.402667,30.2 L209.866667,30.2 C210.170668,30.2 210.410666,30.2799992 210.586667,30.44 C210.762668,30.6000008 210.882666,30.783999 210.946667,30.992 L213.226667,39.92 L215.506667,30.992 C215.570667,30.783999 215.690666,30.6000008 215.866667,30.44 C216.042668,30.2799992 216.282665,30.2 216.586667,30.2 L221.050667,30.2 C221.194667,30.2 221.318666,30.2519995 221.422667,30.356 C221.526667,30.4600005 221.578667,30.5839993 221.578667,30.728 L221.554667,30.896 L217.042667,46.208 C216.978666,46.416001 216.858668,46.5999992 216.682667,46.76 C216.506666,46.9200008 216.266668,47 215.962667,47 L210.490667,47 Z M236.44,47 C236.263999,47 236.112001,46.9360006 235.984,46.808 C235.855999,46.6799994 235.792,46.5280009 235.792,46.352 L235.792,30.848 C235.792,30.6719991 235.855999,30.5200006 235.984,30.392 C236.112001,30.2639994 236.263999,30.2 236.44,30.2 L241.336,30.2 C241.512001,30.2 241.663999,30.2639994 241.792,30.392 C241.920001,30.5200006 241.984,30.6719991 241.984,30.848 L241.984,46.352 C241.984,46.5280009 241.920001,46.6799994 241.792,46.808 C241.663999,46.9360006 241.512001,47 241.336,47 L236.44,47 Z M257.325333,47 C257.149332,47 256.997334,46.9360006 256.869333,46.808 C256.741333,46.6799994 256.677333,46.5280009 256.677333,46.352 L256.677333,42.896 C256.677333,42.5759984 256.797332,42.2960012 257.037333,42.056 L263.757333,35.072 L257.565333,35.072 C257.389332,35.072 257.237334,35.0080006 257.109333,34.88 C256.981333,34.7519994 256.917333,34.6000009 256.917333,34.424 L256.917333,30.848 C256.917333,30.6719991 256.981333,30.5200006 257.109333,30.392 C257.237334,30.2639994 257.389332,30.2 257.565333,30.2 L270.717333,30.2 C270.893334,30.2 271.045333,30.2639994 271.173333,30.392 C271.301334,30.5200006 271.365333,30.6719991 271.365333,30.848 L271.365333,34.256 C271.365333,34.5302871 271.288926,34.7634282 271.136109,34.9554283 L264.693333,42.08 L271.029333,42.08 C271.205334,42.08 271.357333,42.1439994 271.485333,42.272 C271.613334,42.4000006 271.677333,42.5519991 271.677333,42.728 L271.677333,46.352 C271.677333,46.5280009 271.613334,46.6799994 271.485333,46.808 C271.357333,46.9360006 271.205334,47 271.029333,47 L257.325333,47 Z M286.658667,47 C286.482666,47 286.330667,46.9360006 286.202667,46.808 C286.074666,46.6799994 286.010667,46.528 286.010667,46.352 L286.010667,42.176 C286.010667,41.9999991 286.074666,41.8480006 286.202667,41.72 C286.330667,41.5919994 286.482666,41.528 286.658667,41.528 L290.834667,41.528 C291.010667,41.528 291.162666,41.5919994 291.290667,41.72 C291.418667,41.8480006 291.482667,41.9999991 291.482667,42.176 L291.482667,46.352 C291.482667,46.528 291.418667,46.6799994 291.290667,46.808 C291.162666,46.9360006 291.010667,47 290.834667,47 L286.658667,47 Z" id="MUVIZ."></path>
        </g>
    </g>
</svg>